<svg height="300" width="600" xmlns="http://www.w3.org/2000/svg">
<g transform="translate(150, 150)">
<path d="M130,0 L129.96797,2.8854728 L129.87074,5.7954316 L129.70668,8.727971 L129.47414,11.681078 L129.1716,14.652628 L128.79758,17.640398 L128.35071,20.642065 L127.829704,23.655197 L127.23333,26.677269 L126.56056,29.705673 L125.81035,32.7377 L124.98186,35.770565 L124.07438,38.801426 L123.087265,41.82733 L122.02008,44.845306 L120.872475,47.852306 L119.64431,50.84525 L118.33555,53.821003 L116.94631,56.77641 L115.47691,59.708298 L113.9278,62.613487 L112.299644,65.48882 L110.5932,68.33113 L108.80942,71.13727 L106.94942,73.90412 L105.01454,76.62866 L103.00616,79.307846 L100.92592,81.93877 L98.77558,84.51855 L96.55708,87.04442 L94.27244,89.51372 L91.92388,91.92388 L89.51372,94.27244 L87.04442,96.55708 L84.51855,98.77558 L81.93877,100.92592 L79.307846,103.00616 L76.62866,105.01454 L73.90412,106.94942 L71.13727,108.80942 L68.33113,110.5932 L65.48882,112.299644 L62.613487,113.9278 L59.708298,115.47691 L56.77641,116.94631 L53.821003,118.33555 L50.84525,119.64431 L47.852306,120.872475 L44.845306,122.02008 L41.82733,123.087265 L38.801426,124.07438 L35.770565,124.98186 L32.7377,125.81035 L29.705673,126.56056 L26.677269,127.23333 L23.655197,127.829704 L20.642065,128.35071 L17.640398,128.79758 L14.652628,129.1716 L11.681078,129.47414 L8.727971,129.70668 L5.7954316,129.87074 L2.8854728,129.96797 L0,130 L-2.8854728,129.96797 L-5.7954316,129.87074 L-8.727971,129.70668 L-11.681078,129.47414 L-14.652628,129.1716 L-17.640398,128.79758 L-20.642065,128.35071 L-23.655197,127.829704 L-26.677269,127.23333 L-29.705673,126.56056 L-32.7377,125.81035 L-35.770565,124.98186 L-38.801426,124.07438 L-41.82733,123.087265 L-44.845306,122.02008 L-47.852306,120.872475 L-50.84525,119.64431 L-53.821003,118.33555 L-56.77641,116.94631 L-59.708298,115.47691 L-62.613487,113.9278 L-65.48882,112.299644 L-68.33113,110.5932 L-71.13727,108.80942 L-73.90412,106.94942 L-76.62866,105.01454 L-79.307846,103.00616 L-81.93877,100.92592 L-84.51855,98.77558 L-87.04442,96.55708 L-89.51372,94.27244 L-91.92388,91.92388 L-94.27244,89.51372 L-96.55708,87.04442 L-98.77558,84.51855 L-100.92592,81.93877 L-103.00616,79.307846 L-105.01454,76.62866 L-106.94942,73.90412 L-108.80942,71.13727 L-110.5932,68.33113 L-112.299644,65.48882 L-113.9278,62.613487 L-115.47691,59.708298 L-116.94631,56.77641 L-118.33555,53.821003 L-119.64431,50.84525 L-120.872475,47.852306 L-122.02008,44.845306 L-123.087265,41.82733 L-124.07438,38.801426 L-124.98186,35.770565 L-125.81035,32.7377 L-126.56056,29.705673 L-127.23333,26.677269 L-127.829704,23.655197 L-128.35071,20.642065 L-128.79758,17.640398 L-129.1716,14.652628 L-129.47414,11.681078 L-129.70668,8.727971 L-129.87074,5.7954316 L-129.96797,2.8854728 L-130,0 L-129.96797,-2.8854728 L-129.87074,-5.7954316 L-129.70668,-8.727971 L-129.47414,-11.681078 L-129.1716,-14.652628 L-128.79758,-17.640398 L-128.35071,-20.642065 L-127.829704,-23.655197 L-127.23333,-26.677269 L-126.56056,-29.705673 L-125.81035,-32.7377 L-124.98186,-35.770565 L-124.07438,-38.801426 L-123.087265,-41.82733 L-122.02008,-44.845306 L-120.872475,-47.852306 L-119.64431,-50.84525 L-118.33555,-53.821003 L-116.94631,-56.77641 L-115.47691,-59.708298 L-113.9278,-62.613487 L-112.299644,-65.48882 L-110.5932,-68.33113 L-108.80942,-71.13727 L-106.94942,-73.90412 L-105.01454,-76.62866 L-103.00616,-79.307846 L-100.92592,-81.93877 L-98.77558,-84.51855 L-96.55708,-87.04442 L-94.27244,-89.51372 L-91.92388,-91.92388 L-89.51372,-94.27244 L-87.04442,-96.55708 L-84.51855,-98.77558 L-81.93877,-100.92592 L-79.307846,-103.00616 L-76.62866,-105.01454 L-73.90412,-106.94942 L-71.13727,-108.80942 L-68.33113,-110.5932 L-65.48882,-112.299644 L-62.613487,-113.9278 L-59.708298,-115.47691 L-56.77641,-116.94631 L-53.821003,-118.33555 L-50.84525,-119.64431 L-47.852306,-120.872475 L-44.845306,-122.02008 L-41.82733,-123.087265 L-38.801426,-124.07438 L-35.770565,-124.98186 L-32.7377,-125.81035 L-29.705673,-126.56056 L-26.677269,-127.23333 L-23.655197,-127.829704 L-20.642065,-128.35071 L-17.640398,-128.79758 L-14.652628,-129.1716 L-11.681078,-129.47414 L-8.727971,-129.70668 L-5.7954316,-129.87074 L-2.8854728,-129.96797 L0,-130 L2.8854728,-129.96797 L5.7954316,-129.87074 L8.727971,-129.70668 L11.681078,-129.47414 L14.652628,-129.1716 L17.640398,-128.79758 L20.642065,-128.35071 L23.655197,-127.829704 L26.677269,-127.23333 L29.705673,-126.56056 L32.7377,-125.81035 L35.770565,-124.98186 L38.801426,-124.07438 L41.82733,-123.087265 L44.845306,-122.02008 L47.852306,-120.872475 L50.84525,-119.64431 L53.821003,-118.33555 L56.77641,-116.94631 L59.708298,-115.47691 L62.613487,-113.9278 L65.48882,-112.299644 L68.33113,-110.5932 L71.13727,-108.80942 L73.90412,-106.94942 L76.62866,-105.01454 L79.307846,-103.00616 L81.93877,-100.92592 L84.51855,-98.77558 L87.04442,-96.55708 L89.51372,-94.27244 L91.92388,-91.92388 L94.27244,-89.51372 L96.55708,-87.04442 L98.77558,-84.51855 L100.92592,-81.93877 L103.00616,-79.307846 L105.01454,-76.62866 L106.94942,-73.90412 L108.80942,-71.13727 L110.5932,-68.33113 L112.299644,-65.48882 L113.9278,-62.613487 L115.47691,-59.708298 L116.94631,-56.77641 L118.33555,-53.821003 L119.64431,-50.84525 L120.872475,-47.852306 L122.02008,-44.845306 L123.087265,-41.82733 L124.07438,-38.801426 L124.98186,-35.770565 L125.81035,-32.7377 L126.56056,-29.705673 L127.23333,-26.677269 L127.829704,-23.655197 L128.35071,-20.642065 L128.79758,-17.640398 L129.1716,-14.652628 L129.47414,-11.681078 L129.70668,-8.727971 L129.87074,-5.7954316 L129.96797,-2.8854728 L130,0" fill="none" stroke="#711081" stroke-width="2px" vector-effect="non-scaling-stroke"/>
<g>
<path d="M130,0 L130,130 L0,130 L-130,130 L-130,0 L-130,-130 L0,-130 L130,-130 L130,0" fill="none" stroke="#101010" stroke-dasharray="4 3" stroke-width="1px" vector-effect="non-scaling-stroke"/>
<g>
<circle cx="130" cy="0" fill="#AAAAAA" r="3.5" stroke="#000000" stroke-width="1px" vector-effect="non-scaling-stroke"/>
<circle cx="130" cy="130" fill="#AAAAAA" r="3.5" stroke="#000000" stroke-width="1px" vector-effect="non-scaling-stroke"/>
<circle cx="0" cy="130" fill="#AAAAAA" r="3.5" stroke="#000000" stroke-width="1px" vector-effect="non-scaling-stroke"/>
<circle cx="-130" cy="130" fill="#AAAAAA" r="3.5" stroke="#000000" stroke-width="1px" vector-effect="non-scaling-stroke"/>
<circle cx="-130" cy="0" fill="#AAAAAA" r="3.5" stroke="#000000" stroke-width="1px" vector-effect="non-scaling-stroke"/>
<circle cx="-130" cy="-130" fill="#AAAAAA" r="3.5" stroke="#000000" stroke-width="1px" vector-effect="non-scaling-stroke"/>
<circle cx="0" cy="-130" fill="#AAAAAA" r="3.5" stroke="#000000" stroke-width="1px" vector-effect="non-scaling-stroke"/>
<circle cx="130" cy="-130" fill="#AAAAAA" r="3.5" stroke="#000000" stroke-width="1px" vector-effect="non-scaling-stroke"/>
<circle cx="130" cy="0" fill="#AAAAAA" r="3.5" stroke="#000000" stroke-width="1px" vector-effect="non-scaling-stroke"/>
</g>
</g>
</g>
<g fill="none" stroke="blue" stroke-width="2px" transform="translate(450, 150)" vector-effect="non-scaling-stroke">
<circle cx="0" cy="0" r="130"/>
</g>
</svg>