<svg height="300" width="600" xmlns="http://www.w3.org/2000/svg">
<g>
<path d="M80,20 L82.322754,23.034973 L84.603714,26.046143 L86.843216,29.033508 L89.041595,31.99707 L91.19917,34.93683 L93.316284,37.852783 L95.393265,40.744934 L97.43042,43.61328 L99.4281,46.457825 L101.38663,49.278564 L103.30632,52.0755 L105.18753,54.848633 L107.03056,57.59796 L108.83577,60.323486 L110.60347,63.025208 L112.333984,65.703125 L114.02765,68.35724 L115.6848,70.98755 L117.305756,73.594055 L118.89084,76.17676 L120.4404,78.73566 L121.95474,81.27075 L123.43422,83.78204 L124.87915,86.26953 L126.289856,88.733215 L127.66669,91.173096 L129.00995,93.58917 L130.31998,95.981445 L131.5971,98.349915 L132.84166,100.69458 L134.05397,103.01544 L135.23438,105.3125 L136.3832,107.585754 L137.50075,109.835205 L138.58737,112.06085 L139.6434,114.262695 L140.66916,116.440735 L141.66498,118.59497 L142.6312,120.7254 L143.56812,122.83203 L144.47609,124.914856 L145.35544,126.97388 L146.20648,129.0091 L147.02957,131.02051 L147.82501,133.00812 L148.59315,134.97192 L149.33432,136.91193 L150.04883,138.82813 L150.73701,140.72052 L151.39922,142.58911 L152.03575,144.4339 L152.64694,146.25488 L153.23314,148.05206 L153.79465,149.82544 L154.33182,151.57501 L154.84497,153.30078 L155.33443,155.00275 L155.80054,156.68091 L156.2436,158.33527 L156.66397,159.96582 L157.06197,161.57257 L157.43791,163.15552 L157.79214,164.71466 L158.125,166.25 L158.4368,167.76154 L158.72786,169.24927 L158.99852,170.7132 L159.24911,172.15332 L159.47997,173.56964 L159.6914,174.96216 L159.88377,176.33087 L160.05737,177.67578 L160.21255,178.99689 L160.34964,180.29419 L160.46895,181.56769 L160.57083,182.81738 L160.6556,184.04327 L160.72359,185.24536 L160.77513,186.42365 L160.81055,187.57813 L160.83017,188.7088 L160.83434,189.81567 L160.82336,190.89874 L160.79758,191.95801 L160.75732,192.99347 L160.70291,194.00513 L160.63469,194.99298 L160.55298,195.95703 L160.4581,196.89728 L160.3504,197.81372 L160.2302,198.70636 L160.09781,199.5752 L159.95358,200.42023 L159.79784,201.24146 L159.6309,202.03888 L159.45313,202.8125 L159.26482,203.56232 L159.0663,204.28833 L158.85791,204.99054 L158.63998,205.66895 L158.41284,206.32355 L158.17682,206.95435 L157.93225,207.56134 L157.67944,208.14453 L157.41875,208.70392 L157.15048,209.2395 L156.87497,209.75128 L156.59256,210.23926 L156.30356,210.70343 L156.00832,211.1438 L155.70715,211.56036 L155.40039,211.95313 L155.08836,212.32208 L154.77141,212.66724 L154.44984,212.98859 L154.124,213.28613 L153.7942,213.55988 L153.46078,213.80981 L153.12408,214.03595 L152.78442,214.23828 L152.44212,214.41681 L152.09753,214.57153 L151.75096,214.70245 L151.40274,214.80957 L151.0532,214.89288 L150.70268,214.9524 L150.3515,214.9881 L150,215 L149.6485,214.9881 L149.29732,214.9524 L148.9468,214.89288 L148.59726,214.80957 L148.24904,214.70245 L147.90247,214.57153 L147.55788,214.41681 L147.21558,214.23828 L146.87592,214.03595 L146.53922,213.80981 L146.2058,213.55988 L145.876,213.28613 L145.55016,212.98859 L145.22859,212.66724 L144.91164,212.32208 L144.59961,211.95313 L144.29285,211.56036 L143.99168,211.1438 L143.69644,210.70343 L143.40744,210.23926 L143.12503,209.75128 L142.84952,209.2395 L142.58125,208.70392 L142.32056,208.14453 L142.06775,207.56134 L141.82318,206.95435 L141.58716,206.32355 L141.36002,205.66895 L141.14209,204.99054 L140.9337,204.28833 L140.73518,203.56232 L140.54688,202.8125 L140.3691,202.03888 L140.20216,201.24146 L140.04642,200.42023 L139.90219,199.5752 L139.7698,198.70636 L139.6496,197.81372 L139.5419,196.89728 L139.44702,195.95703 L139.36531,194.99298 L139.29709,194.00513 L139.24268,192.99347 L139.20242,191.95801 L139.17664,190.89874 L139.16566,189.81567 L139.16983,188.7088 L139.18945,187.57813 L139.22487,186.42365 L139.27641,185.24536 L139.3444,184.04327 L139.42917,182.81738 L139.53105,181.56769 L139.65036,180.29419 L139.78745,178.99689 L139.94263,177.67578 L140.11623,176.33087 L140.3086,174.96216 L140.52003,173.56964 L140.75089,172.15332 L141.00148,170.7132 L141.27214,169.24927 L141.5632,167.76154 L141.875,166.25 L142.20786,164.71466 L142.56209,163.15552 L142.93803,161.57257 L143.33603,159.96582 L143.7564,158.33527 L144.19946,156.68091 L144.66557,155.00275 L145.15503,153.30078 L145.66818,151.57501 L146.20535,149.82544 L146.76686,148.05206 L147.35306,146.25488 L147.96425,144.4339 L148.6008,142.58911 L149.26297,140.72052 L149.95117,138.82813 L150.66568,136.91193 L151.40683,134.97192 L152.17499,133.00812 L152.97043,131.02051 L153.79352,129.0091 L154.64456,126.97388 L155.52393,124.914856 L156.43188,122.83203 L157.3688,120.7254 L158.33502,118.59497 L159.33084,116.440735 L160.3566,114.262695 L161.41263,112.06085 L162.49927,109.835205 L163.61682,107.585754 L164.76563,105.3125 L165.94601,103.01544 L167.15833,100.69458 L168.4029,98.349915 L169.68002,95.981445 L170.99005,93.58917 L172.33331,91.173096 L173.71014,88.733215 L175.12085,86.26953 L176.56577,83.78204 L178.04526,81.27075 L179.5596,78.73566 L181.10916,76.17676 L182.69424,73.594055 L184.31522,70.98755 L185.97235,68.35724 L187.66602,65.703125 L189.39655,63.025208 L191.16422,60.323486 L192.96942,57.59796 L194.81247,54.848633 L196.69366,52.0755 L198.61337,49.278564 L200.5719,46.457825 L202.56958,43.61328 L204.60675,40.744934 L206.68372,37.852783 L208.80081,34.93683 L210.9584,31.99707 L213.15677,29.033508 L215.3963,26.046143 L217.67725,23.034973 L220,20" fill="none" stroke="#711081" stroke-width="2px" vector-effect="non-scaling-stroke"/>
<g>
<path d="M80,20 L280,280 L20,280 L220,20" fill="none" stroke="#101010" stroke-dasharray="4 3" stroke-width="1px" vector-effect="non-scaling-stroke"/>
<g>
<circle cx="80" cy="20" fill="#AAAAAA" r="3.5" stroke="#000000" stroke-width="1px" vector-effect="non-scaling-stroke"/>
<circle cx="280" cy="280" fill="#AAAAAA" r="3.5" stroke="#000000" stroke-width="1px" vector-effect="non-scaling-stroke"/>
<circle cx="20" cy="280" fill="#AAAAAA" r="3.5" stroke="#000000" stroke-width="1px" vector-effect="non-scaling-stroke"/>
<circle cx="220" cy="20" fill="#AAAAAA" r="3.5" stroke="#000000" stroke-width="1px" vector-effect="non-scaling-stroke"/>
</g>
</g>
</g>
<g fill="none" stroke="blue" stroke-width="2px" transform="translate(300, 0)" vector-effect="non-scaling-stroke">
<path d="M80,20 C280,280,20,280,220,20"/>
</g>
</svg>