<svg height="300" width="300" xmlns="http://www.w3.org/2000/svg">
<g transform="translate(-60,0)">
<path d="M152,18 L151.15953,18.42033 L150.32558,18.837982 L149.49806,19.253574 L148.67691,19.667725 L147.86203,20.08105 L147.05338,20.494171 L146.25082,20.907703 L145.45435,21.322266 L144.66383,21.738476 L143.87921,22.156952 L143.10042,22.578312 L142.32736,23.003174 L141.55997,23.432156 L140.79817,23.865875 L140.04187,24.30495 L139.29102,24.75 L138.54552,25.201641 L137.80528,25.660492 L137.07027,26.12717 L136.34036,26.602295 L135.61551,27.086483 L134.89563,27.580353 L134.18063,28.084522 L133.47046,28.59961 L132.76501,29.126232 L132.06424,29.665009 L131.36804,30.216557 L130.67636,30.781494 L129.9891,31.36044 L129.30618,31.95401 L128.62756,32.562824 L127.953125,33.1875 L127.28281,33.828655 L126.61654,34.486908 L125.95423,35.162876 L125.29581,35.857178 L124.6412,36.57043 L123.99032,37.303253 L123.3431,38.056263 L122.69946,38.83008 L122.059326,39.625317 L121.422615,40.442596 L120.62792,41.56385 L119.54645,43.275024 L118.516266,45.024513 L117.53629,46.823746 L116.60545,48.684162 L115.72266,50.617188 L114.886826,52.63426 L114.096886,54.74681 L113.351746,56.96627 L112.65033,59.304077 L111.991554,61.77166 L111.37434,64.38045 L110.79759,67.14188 L110.260254,70.06738 L109.76123,73.168396 L109.29943,76.456345 L108.87379,79.942665 L108.483215,83.638794 L108.12663,87.55616 L107.802956,91.70619 L107.51111,96.10033 L107.25,100.75 L107.018555,105.66664 L106.8157,110.86168 L106.640335,116.34655 L106.491394,122.13269 L106.36779,128.23152 L106.26844,134.6545 L106.19227,141.41302 L106.13818,148.51855 L106.10511,155.98251 L106.09197,163.81633 L106.09768,172.03145 L106.121155,180.63928 L106.161316,189.65128 L106.21708,199.07887 L106.28737,208.93349 L106.37109,219.22656 L106.46718,229.96953 L106.57455,241.17381 L106.69211,252.85086 L106.81879,265.0121 L106.9535,277.66895 L107.01305,281.9964 L107.080246,281.97772 L107.20215,281.94385 L107.37596,281.89557 L107.59889,281.83365 L107.86818,281.75885 L108.18103,281.67194 L108.53467,281.5737 L108.926315,281.4649 L109.35318,281.34634 L109.8125,281.21875 L110.30148,281.08292 L110.81734,280.93964 L111.3573,280.78964 L111.91858,280.63373 L112.4984,280.47266 L113.09398,280.30722 L113.70253,280.13818 L114.32129,279.9663 L114.94746,279.79236 L115.57826,279.61716 L116.21092,279.4414 L116.84265,279.26593 L117.47067,279.0915 L118.09221,278.91882 L118.70447,278.74875 L119.30469,278.58203 L119.890076,278.41943 L120.45784,278.26172 L121.00522,278.10965 L121.52942,277.96405 L122.027664,277.82565 L122.49718,277.69522 L122.935165,277.57358 L123.33887,277.46143 L123.70549,277.3596 L124.03224,277.26883 L124.31636,277.1899 L124.55505,277.1236 L124.745544,277.07068 L124.885056,277.03192 L124.970795,277.00812 L125,277 L124.996826,276.26123 L124.98785,275.45377 L124.973816,274.5814 L124.955505,273.6478 L124.9337,272.65686 L124.90916,271.61234 L124.88266,270.518 L124.85498,269.3777 L124.82689,268.19513 L124.79916,266.97412 L124.77255,265.71844 L124.74786,264.43192 L124.725845,263.1183 L124.70728,261.78137 L124.69295,260.4249 L124.68359,259.05273 L124.68001,257.6686 L124.682976,256.2763 L124.69325,254.87964 L124.71161,253.48239 L124.73883,252.08832 L124.77567,250.70123 L124.82292,249.3249 L124.88135,247.96313 L124.95172,246.61969 L125.03481,245.29837 L125.13139,244.00293 L125.24225,242.73721 L125.36814,241.50496 L125.509834,240.30997 L125.668106,239.156 L125.84375,238.04688 L126.03752,236.98636 L126.250175,235.97824 L126.482506,235.02632 L126.73529,234.13437 L127.00929,233.30617 L127.305275,232.5455 L127.62402,231.85617 L127.96631,231.24194 L128.3329,230.70662 L128.72458,230.25397 L129.2591,229.78851 L130.05145,229.14767 L130.86586,228.49767 L131.70152,227.83904 L132.55771,227.17232 L133.4336,226.49805 L134.32843,225.81677 L135.24147,225.12904 L136.17189,224.4354 L137.11896,223.73636 L138.08188,223.03249 L139.05989,222.32431 L140.05223,221.61237 L141.0581,220.89722 L142.07675,220.17938 L143.1074,219.45941 L144.14928,218.73785 L145.2016,218.01523 L146.26361,217.29208 L147.33452,216.56898 L148.41357,215.84644 L149.5,215.125 L150.59302,214.40521 L151.69185,213.6876 L152.79572,212.97275 L153.90387,212.26114 L155.01552,211.55334 L156.1299,210.84991 L157.24625,210.15137 L158.36377,209.45825 L159.4817,208.7711 L160.59929,208.09048 L161.71573,207.41692 L162.83026,206.75095 L163.94212,206.09311 L165.05052,205.44395 L166.15471,204.80402 L167.2539,204.17383 L168.34734,203.55394 L169.43422,202.9449 L170.51378,202.34724 L171.58527,201.7615 L172.64789,201.18823 L172.98477,200.86737 L172.90637,200.18411 L172.76416,198.94482 L172.56137,197.1778 L172.3013,194.91125 L171.98712,192.17352 L171.62213,188.99286 L171.20956,185.39752 L170.75262,181.4158 L170.25461,177.07596 L169.71875,172.40625 L169.14827,167.43497 L168.54645,162.1904 L167.91649,156.7008 L167.26166,150.99445 L166.5852,145.09961 L165.89035,139.04456 L165.18037,132.85756 L164.4585,126.566895 L163.72797,120.200836 L162.99203,113.78766 L162.25392,107.35564 L161.5169,100.933044 L160.78421,94.54814 L160.05908,88.22921 L159.34479,82.00452 L158.64453,75.90234 L157.96158,69.95096 L157.2992,64.17863 L156.66058,58.613632 L156.04901,53.28424 L155.46773,48.218727 L154.91995,43.445366 L154.40897,38.992428 L153.93799,34.888184 L153.51027,31.160908 L153.12906,27.838875 L152.79758,24.950356 L152.5191,22.52362 L152.29688,20.586945 L152.1341,19.168602 L152.03406,18.296864 L152,18" fill="none" stroke="#711081" stroke-width="2px" vector-effect="non-scaling-stroke"/>
<g>
<path d="M152,18 L140,24 L130,29 L121,41 L105,65 L105,96 L107,282 L107,282 L125,277 L125,277 L125,267 L123,235 L129,230 L140,221 L158,209 L173,201 L173,201 L152,18 L152,18" fill="none" stroke="#101010" stroke-dasharray="4 3" stroke-width="1px" vector-effect="non-scaling-stroke"/>
<g>
<circle cx="152" cy="18" fill="#AAAAAA" r="3.5" stroke="#000000" stroke-width="1px" vector-effect="non-scaling-stroke"/>
<circle cx="140" cy="24" fill="#AAAAAA" r="3.5" stroke="#000000" stroke-width="1px" vector-effect="non-scaling-stroke"/>
<circle cx="130" cy="29" fill="#AAAAAA" r="3.5" stroke="#000000" stroke-width="1px" vector-effect="non-scaling-stroke"/>
<circle cx="121" cy="41" fill="#AAAAAA" r="3.5" stroke="#000000" stroke-width="1px" vector-effect="non-scaling-stroke"/>
<circle cx="105" cy="65" fill="#AAAAAA" r="3.5" stroke="#000000" stroke-width="1px" vector-effect="non-scaling-stroke"/>
<circle cx="105" cy="96" fill="#AAAAAA" r="3.5" stroke="#000000" stroke-width="1px" vector-effect="non-scaling-stroke"/>
<circle cx="107" cy="282" fill="#AAAAAA" r="3.5" stroke="#000000" stroke-width="1px" vector-effect="non-scaling-stroke"/>
<circle cx="107" cy="282" fill="#AAAAAA" r="3.5" stroke="#000000" stroke-width="1px" vector-effect="non-scaling-stroke"/>
<circle cx="125" cy="277" fill="#AAAAAA" r="3.5" stroke="#000000" stroke-width="1px" vector-effect="non-scaling-stroke"/>
<circle cx="125" cy="277" fill="#AAAAAA" r="3.5" stroke="#000000" stroke-width="1px" vector-effect="non-scaling-stroke"/>
<circle cx="125" cy="267" fill="#AAAAAA" r="3.5" stroke="#000000" stroke-width="1px" vector-effect="non-scaling-stroke"/>
<circle cx="123" cy="235" fill="#AAAAAA" r="3.5" stroke="#000000" stroke-width="1px" vector-effect="non-scaling-stroke"/>
<circle cx="129" cy="230" fill="#AAAAAA" r="3.5" stroke="#000000" stroke-width="1px" vector-effect="non-scaling-stroke"/>
<circle cx="140" cy="221" fill="#AAAAAA" r="3.5" stroke="#000000" stroke-width="1px" vector-effect="non-scaling-stroke"/>
<circle cx="158" cy="209" fill="#AAAAAA" r="3.5" stroke="#000000" stroke-width="1px" vector-effect="non-scaling-stroke"/>
<circle cx="173" cy="201" fill="#AAAAAA" r="3.5" stroke="#000000" stroke-width="1px" vector-effect="non-scaling-stroke"/>
<circle cx="173" cy="201" fill="#AAAAAA" r="3.5" stroke="#000000" stroke-width="1px" vector-effect="non-scaling-stroke"/>
<circle cx="152" cy="18" fill="#AAAAAA" r="3.5" stroke="#000000" stroke-width="1px" vector-effect="non-scaling-stroke"/>
<circle cx="152" cy="18" fill="#AAAAAA" r="3.5" stroke="#000000" stroke-width="1px" vector-effect="non-scaling-stroke"/>
</g>
</g>
</g>
<path d="M152,18 L151.15953,18.42033 L150.32558,18.837982 L149.49806,19.253574 L148.67691,19.667725 L147.86203,20.08105 L147.05338,20.494171 L146.25082,20.907703 L145.45435,21.322266 L144.66383,21.738476 L143.87921,22.156952 L143.10042,22.578312 L142.32736,23.003174 L141.55997,23.432156 L140.79817,23.865875 L140.04187,24.30495 L139.29102,24.75 L138.54552,25.201641 L137.80528,25.660492 L137.07027,26.12717 L136.34036,26.602295 L135.61551,27.086483 L134.89563,27.580353 L134.18063,28.084522 L133.47046,28.59961 L132.76501,29.126232 L132.06424,29.665009 L131.36804,30.216557 L130.67636,30.781494 L129.9891,31.36044 L129.30618,31.95401 L128.62756,32.562824 L127.953125,33.1875 L127.28281,33.828655 L126.61654,34.486908 L125.95423,35.162876 L125.29581,35.857178 L124.6412,36.57043 L123.99032,37.303253 L123.3431,38.056263 L122.69946,38.83008 L122.059326,39.625317 L121.422615,40.442596 L120.62792,41.56385 L119.54645,43.275024 L118.516266,45.024513 L117.53629,46.823746 L116.60545,48.684162 L115.72266,50.617188 L114.886826,52.63426 L114.096886,54.74681 L113.351746,56.96627 L112.65033,59.304077 L111.991554,61.77166 L111.37434,64.38045 L110.79759,67.14188 L110.260254,70.06738 L109.76123,73.168396 L109.29943,76.456345 L108.87379,79.942665 L108.483215,83.638794 L108.12663,87.55616 L107.802956,91.70619 L107.51111,96.10033 L107.25,100.75 L107.018555,105.66664 L106.8157,110.86168 L106.640335,116.34655 L106.491394,122.13269 L106.36779,128.23152 L106.26844,134.6545 L106.19227,141.41302 L106.13818,148.51855 L106.10511,155.98251 L106.09197,163.81633 L106.09768,172.03145 L106.121155,180.63928 L106.161316,189.65128 L106.21708,199.07887 L106.28737,208.93349 L106.37109,219.22656 L106.46718,229.96953 L106.57455,241.17381 L106.69211,252.85086 L106.81879,265.0121 L106.9535,277.66895 L107.01305,281.9964 L107.080246,281.97772 L107.20215,281.94385 L107.37596,281.89557 L107.59889,281.83365 L107.86818,281.75885 L108.18103,281.67194 L108.53467,281.5737 L108.926315,281.4649 L109.35318,281.34634 L109.8125,281.21875 L110.30148,281.08292 L110.81734,280.93964 L111.3573,280.78964 L111.91858,280.63373 L112.4984,280.47266 L113.09398,280.30722 L113.70253,280.13818 L114.32129,279.9663 L114.94746,279.79236 L115.57826,279.61716 L116.21092,279.4414 L116.84265,279.26593 L117.47067,279.0915 L118.09221,278.91882 L118.70447,278.74875 L119.30469,278.58203 L119.890076,278.41943 L120.45784,278.26172 L121.00522,278.10965 L121.52942,277.96405 L122.027664,277.82565 L122.49718,277.69522 L122.935165,277.57358 L123.33887,277.46143 L123.70549,277.3596 L124.03224,277.26883 L124.31636,277.1899 L124.55505,277.1236 L124.745544,277.07068 L124.885056,277.03192 L124.970795,277.00812 L125,277 L124.996826,276.26123 L124.98785,275.45377 L124.973816,274.5814 L124.955505,273.6478 L124.9337,272.65686 L124.90916,271.61234 L124.88266,270.518 L124.85498,269.3777 L124.82689,268.19513 L124.79916,266.97412 L124.77255,265.71844 L124.74786,264.43192 L124.725845,263.1183 L124.70728,261.78137 L124.69295,260.4249 L124.68359,259.05273 L124.68001,257.6686 L124.682976,256.2763 L124.69325,254.87964 L124.71161,253.48239 L124.73883,252.08832 L124.77567,250.70123 L124.82292,249.3249 L124.88135,247.96313 L124.95172,246.61969 L125.03481,245.29837 L125.13139,244.00293 L125.24225,242.73721 L125.36814,241.50496 L125.509834,240.30997 L125.668106,239.156 L125.84375,238.04688 L126.03752,236.98636 L126.250175,235.97824 L126.482506,235.02632 L126.73529,234.13437 L127.00929,233.30617 L127.305275,232.5455 L127.62402,231.85617 L127.96631,231.24194 L128.3329,230.70662 L128.72458,230.25397 L129.2591,229.78851 L130.05145,229.14767 L130.86586,228.49767 L131.70152,227.83904 L132.55771,227.17232 L133.4336,226.49805 L134.32843,225.81677 L135.24147,225.12904 L136.17189,224.4354 L137.11896,223.73636 L138.08188,223.03249 L139.05989,222.32431 L140.05223,221.61237 L141.0581,220.89722 L142.07675,220.17938 L143.1074,219.45941 L144.14928,218.73785 L145.2016,218.01523 L146.26361,217.29208 L147.33452,216.56898 L148.41357,215.84644 L149.5,215.125 L150.59302,214.40521 L151.69185,213.6876 L152.79572,212.97275 L153.90387,212.26114 L155.01552,211.55334 L156.1299,210.84991 L157.24625,210.15137 L158.36377,209.45825 L159.4817,208.7711 L160.59929,208.09048 L161.71573,207.41692 L162.83026,206.75095 L163.94212,206.09311 L165.05052,205.44395 L166.15471,204.80402 L167.2539,204.17383 L168.34734,203.55394 L169.43422,202.9449 L170.51378,202.34724 L171.58527,201.7615 L172.64789,201.18823 L172.98477,200.86737 L172.90637,200.18411 L172.76416,198.94482 L172.56137,197.1778 L172.3013,194.91125 L171.98712,192.17352 L171.62213,188.99286 L171.20956,185.39752 L170.75262,181.4158 L170.25461,177.07596 L169.71875,172.40625 L169.14827,167.43497 L168.54645,162.1904 L167.91649,156.7008 L167.26166,150.99445 L166.5852,145.09961 L165.89035,139.04456 L165.18037,132.85756 L164.4585,126.566895 L163.72797,120.200836 L162.99203,113.78766 L162.25392,107.35564 L161.5169,100.933044 L160.78421,94.54814 L160.05908,88.22921 L159.34479,82.00452 L158.64453,75.90234 L157.96158,69.95096 L157.2992,64.17863 L156.66058,58.613632 L156.04901,53.28424 L155.46773,48.218727 L154.91995,43.445366 L154.40897,38.992428 L153.93799,34.888184 L153.51027,31.160908 L153.12906,27.838875 L152.79758,24.950356 L152.5191,22.52362 L152.29688,20.586945 L152.1341,19.168602 L152.03406,18.296864 L152,18" fill="none" stroke="#711081" stroke-width="2px" transform="translate(90, 0)" vector-effect="non-scaling-stroke"/>
</svg>