<svg height="300" width="600" xmlns="http://www.w3.org/2000/svg">
<g transform="translate(150, 150)">
<path d="M130,0 L129.96797,2.8854728 L129.87076,5.7954316 L129.70668,8.727971 L129.47414,11.681077 L129.1716,14.652629 L128.79758,17.640402 L128.35071,20.642067 L127.8297,23.655197 L127.233345,26.67727 L126.560555,29.705671 L125.81035,32.737698 L124.981865,35.77057 L124.07437,38.801422 L123.087265,41.82733 L122.02007,44.84531 L120.87248,47.852314 L119.64431,50.84525 L118.33554,53.821 L116.94631,56.776405 L115.47692,59.708298 L113.927826,62.6135 L112.29966,65.48883 L110.5932,68.33113 L108.80942,71.13727 L106.949425,73.90413 L105.01452,76.628654 L103.00615,79.30784 L100.92591,81.93876 L98.77559,84.51854 L96.557076,87.04442 L94.27244,89.513725 L91.92388,91.92388 L89.513725,94.27244 L87.04442,96.557076 L84.51854,98.77559 L81.93876,100.92591 L79.30784,103.00615 L76.628654,105.01452 L73.90413,106.949425 L71.13727,108.80942 L68.33113,110.5932 L65.48883,112.29966 L62.6135,113.927826 L59.708298,115.47692 L56.776405,116.94631 L53.821,118.33554 L50.84525,119.64431 L47.852314,120.87248 L44.84531,122.02007 L41.82733,123.087265 L38.801422,124.07437 L35.77057,124.981865 L32.737698,125.81035 L29.705671,126.560555 L26.67727,127.233345 L23.655197,127.8297 L20.642067,128.35071 L17.640402,128.79758 L14.652629,129.1716 L11.681077,129.47414 L8.727971,129.70668 L5.7954316,129.87076 L2.8854728,129.96797 L0,130 L-2.8854728,129.96797 L-5.7954316,129.87076 L-8.727971,129.70668 L-11.681077,129.47414 L-14.652629,129.1716 L-17.640402,128.79758 L-20.642067,128.35071 L-23.655197,127.8297 L-26.67727,127.233345 L-29.705671,126.560555 L-32.737698,125.81035 L-35.77057,124.981865 L-38.801422,124.07437 L-41.82733,123.087265 L-44.84531,122.02007 L-47.852314,120.87248 L-50.84525,119.64431 L-53.821,118.33554 L-56.776405,116.94631 L-59.708298,115.47692 L-62.6135,113.927826 L-65.48883,112.29966 L-68.33113,110.5932 L-71.13727,108.80942 L-73.90413,106.949425 L-76.628654,105.01452 L-79.30784,103.00615 L-81.93876,100.92591 L-84.51854,98.77559 L-87.04442,96.557076 L-89.513725,94.27244 L-91.92388,91.92388 L-94.27244,89.513725 L-96.557076,87.04442 L-98.77559,84.51854 L-100.92591,81.93876 L-103.00615,79.30784 L-105.01452,76.628654 L-106.949425,73.90413 L-108.80942,71.13727 L-110.5932,68.33113 L-112.29966,65.48883 L-113.927826,62.6135 L-115.47692,59.708298 L-116.94631,56.776405 L-118.33554,53.821 L-119.64431,50.84525 L-120.87248,47.852314 L-122.02007,44.84531 L-123.087265,41.82733 L-124.07437,38.801422 L-124.981865,35.77057 L-125.81035,32.737698 L-126.560555,29.705671 L-127.233345,26.67727 L-127.8297,23.655197 L-128.35071,20.642067 L-128.79758,17.640402 L-129.1716,14.652629 L-129.47414,11.681077 L-129.70668,8.727971 L-129.87076,5.7954316 L-129.96797,2.8854728 L-130,0 L-129.96797,-2.8854728 L-129.87076,-5.7954316 L-129.70668,-8.727971 L-129.47414,-11.681077 L-129.1716,-14.652629 L-128.79758,-17.640402 L-128.35071,-20.642067 L-127.8297,-23.655197 L-127.233345,-26.67727 L-126.560555,-29.705671 L-125.81035,-32.737698 L-124.981865,-35.77057 L-124.07437,-38.801422 L-123.087265,-41.82733 L-122.02007,-44.84531 L-120.87248,-47.852314 L-119.64431,-50.84525 L-118.33554,-53.821 L-116.94631,-56.776405 L-115.47692,-59.708298 L-113.927826,-62.6135 L-112.29966,-65.48883 L-110.5932,-68.33113 L-108.80942,-71.13727 L-106.949425,-73.90413 L-105.01452,-76.628654 L-103.00615,-79.30784 L-100.92591,-81.93876 L-98.77559,-84.51854 L-96.557076,-87.04442 L-94.27244,-89.513725 L-91.92388,-91.92388 L-89.513725,-94.27244 L-87.04442,-96.557076 L-84.51854,-98.77559 L-81.93876,-100.92591 L-79.30784,-103.00615 L-76.628654,-105.01452 L-73.90413,-106.949425 L-71.13727,-108.80942 L-68.33113,-110.5932 L-65.48883,-112.29966 L-62.6135,-113.927826 L-59.708298,-115.47692 L-56.776405,-116.94631 L-53.821,-118.33554 L-50.84525,-119.64431 L-47.852314,-120.87248 L-44.84531,-122.02007 L-41.82733,-123.087265 L-38.801422,-124.07437 L-35.77057,-124.981865 L-32.737698,-125.81035 L-29.705671,-126.560555 L-26.67727,-127.233345 L-23.655197,-127.8297 L-20.642067,-128.35071 L-17.640402,-128.79758 L-14.652629,-129.1716 L-11.681077,-129.47414 L-8.727971,-129.70668 L-5.7954316,-129.87076 L-2.8854728,-129.96797 L0,-130 L2.8854728,-129.96797 L5.7954316,-129.87076 L8.727971,-129.70668 L11.681077,-129.47414 L14.652629,-129.1716 L17.640402,-128.79758 L20.642067,-128.35071 L23.655197,-127.8297 L26.67727,-127.233345 L29.705671,-126.560555 L32.737698,-125.81035 L35.77057,-124.981865 L38.801422,-124.07437 L41.82733,-123.087265 L44.84531,-122.02007 L47.852314,-120.87248 L50.84525,-119.64431 L53.821,-118.33554 L56.776405,-116.94631 L59.708298,-115.47692 L62.6135,-113.927826 L65.48883,-112.29966 L68.33113,-110.5932 L71.13727,-108.80942 L73.90413,-106.949425 L76.628654,-105.01452 L79.30784,-103.00615 L81.93876,-100.92591 L84.51854,-98.77559 L87.04442,-96.557076 L89.513725,-94.27244 L91.92388,-91.92388 L94.27244,-89.513725 L96.557076,-87.04442 L98.77559,-84.51854 L100.92591,-81.93876 L103.00615,-79.30784 L105.01452,-76.628654 L106.949425,-73.90413 L108.80942,-71.13727 L110.5932,-68.33113 L112.29966,-65.48883 L113.927826,-62.6135 L115.47692,-59.708298 L116.94631,-56.776405 L118.33554,-53.821 L119.64431,-50.84525 L120.87248,-47.852314 L122.02007,-44.84531 L123.087265,-41.82733 L124.07437,-38.801422 L124.981865,-35.77057 L125.81035,-32.737698 L126.560555,-29.705671 L127.233345,-26.67727 L127.8297,-23.655197 L128.35071,-20.642067 L128.79758,-17.640402 L129.1716,-14.652629 L129.47414,-11.681077 L129.70668,-8.727971 L129.87076,-5.7954316 L129.96797,-2.8854728 L130,0" fill="none" stroke="#711081" stroke-width="2px" vector-effect="non-scaling-stroke"/>
<g>
<path d="M130,0 L130,130 L0,130 L-130,130 L-130,0 L-130,-130 L0,-130 L130,-130 L130,0" fill="none" stroke="#101010" stroke-dasharray="4 3" stroke-width="1px" vector-effect="non-scaling-stroke"/>
<g>
<circle cx="130" cy="0" fill="#AAAAAA" r="3.5" stroke="#000000" stroke-width="1px" vector-effect="non-scaling-stroke"/>
<circle cx="130" cy="130" fill="#AAAAAA" r="3.5" stroke="#000000" stroke-width="1px" vector-effect="non-scaling-stroke"/>
<circle cx="0" cy="130" fill="#AAAAAA" r="3.5" stroke="#000000" stroke-width="1px" vector-effect="non-scaling-stroke"/>
<circle cx="-130" cy="130" fill="#AAAAAA" r="3.5" stroke="#000000" stroke-width="1px" vector-effect="non-scaling-stroke"/>
<circle cx="-130" cy="0" fill="#AAAAAA" r="3.5" stroke="#000000" stroke-width="1px" vector-effect="non-scaling-stroke"/>
<circle cx="-130" cy="-130" fill="#AAAAAA" r="3.5" stroke="#000000" stroke-width="1px" vector-effect="non-scaling-stroke"/>
<circle cx="0" cy="-130" fill="#AAAAAA" r="3.5" stroke="#000000" stroke-width="1px" vector-effect="non-scaling-stroke"/>
<circle cx="130" cy="-130" fill="#AAAAAA" r="3.5" stroke="#000000" stroke-width="1px" vector-effect="non-scaling-stroke"/>
<circle cx="130" cy="0" fill="#AAAAAA" r="3.5" stroke="#000000" stroke-width="1px" vector-effect="non-scaling-stroke"/>
</g>
</g>
</g>
<g fill="none" stroke="blue" stroke-width="2px" transform="translate(450, 150)" vector-effect="non-scaling-stroke">
<circle cx="0" cy="0" r="130"/>
</g>
</svg>